<svg width="257" height="52" viewBox="0 0 257 52" fill="none" xmlns="http://www.w3.org/2000/svg">
<path d="M0.368 2.664H9.072L20.592 35.688L19.376 35.176L28.336 12.2L31.792 22.312L18.992 51.176L0.368 2.664ZM23.216 2.664H30.576L43.376 34.984L41.904 34.728L52.528 2.664H60.528L42.352 51.048L23.216 2.664ZM58.3485 49L78.9565 0.487999H79.4045L100.013 49H91.4365L76.9085 12.2L82.2845 8.552L65.7085 49H58.3485ZM71.2765 31.72H87.2125L89.7725 38.056H69.0365L71.2765 31.72ZM107.963 2.408H115.451V41.832H138.427V49H107.963V2.408ZM139.822 2.408H170.99V9.576H158.958V49H151.534V9.576H139.822V2.408ZM180.463 2.408H211.375V9.576H187.951V21.992H208.815V29.224H187.951V41.832H212.271V49H180.463V2.408ZM235.708 2.408C238.268 2.408 240.614 2.74933 242.748 3.432C244.881 4.072 246.694 5.032 248.188 6.312C249.681 7.592 250.833 9.17066 251.644 11.048C252.497 12.8827 252.924 14.9947 252.924 17.384C252.924 19.2187 252.646 21.0533 252.092 22.888C251.537 24.7227 250.62 26.3867 249.34 27.88C248.102 29.3733 246.46 30.568 244.412 31.464C242.364 32.36 239.825 32.808 236.796 32.808H230.076V49H222.588V2.408H235.708ZM236.732 25.64C238.396 25.64 239.782 25.384 240.892 24.872C242.001 24.3173 242.854 23.6347 243.452 22.824C244.092 22.0133 244.54 21.16 244.796 20.264C245.094 19.3253 245.244 18.4507 245.244 17.64C245.244 16.872 245.116 16.04 244.86 15.144C244.604 14.2053 244.177 13.3307 243.58 12.52C242.982 11.6667 242.129 10.9627 241.02 10.408C239.953 9.85333 238.609 9.576 236.988 9.576H230.076V25.64H236.732ZM244.796 30.056L256.7 49H248.06L235.9 30.248L244.796 30.056Z" fill="black"/>
</svg>
